<mxfile host="app.diagrams.net" modified="2022-10-21T19:48:25.300Z" agent="5.0 (Macintosh; Intel Mac OS X 10_15_7) AppleWebKit/605.1.15 (KHTML, like Gecko) Version/15.3 Safari/605.1.15" etag="A3-pbh5w_ImMoLw9B__0" version="20.4.2" type="github">
  <diagram id="H-mRxA0hSMZk5piI1Ffw" name="Page-1">
    <mxGraphModel dx="1773" dy="1767" grid="1" gridSize="10" guides="1" tooltips="1" connect="1" arrows="1" fold="1" page="1" pageScale="1" pageWidth="827" pageHeight="1169" math="0" shadow="0">
      <root>
        <mxCell id="0" />
        <mxCell id="1" parent="0" />
        <mxCell id="INc2y0h4v-s9_u45cCy4-26" style="edgeStyle=none;rounded=0;orthogonalLoop=1;jettySize=auto;html=1;exitX=1;exitY=1;exitDx=0;exitDy=0;" parent="1" edge="1">
          <mxGeometry relative="1" as="geometry">
            <mxPoint x="260" y="160" as="sourcePoint" />
            <mxPoint x="260" y="160" as="targetPoint" />
          </mxGeometry>
        </mxCell>
        <mxCell id="INc2y0h4v-s9_u45cCy4-27" value="department" style="rounded=1;arcSize=10;whiteSpace=wrap;html=1;align=center;" parent="1" vertex="1">
          <mxGeometry x="150" y="330" width="100" height="40" as="geometry" />
        </mxCell>
        <mxCell id="INc2y0h4v-s9_u45cCy4-28" value="employee" style="rounded=1;arcSize=10;whiteSpace=wrap;html=1;align=center;" parent="1" vertex="1">
          <mxGeometry x="150" y="90" width="100" height="50" as="geometry" />
        </mxCell>
        <mxCell id="INc2y0h4v-s9_u45cCy4-30" value="" style="endArrow=none;html=1;rounded=0;exitX=0.5;exitY=0;exitDx=0;exitDy=0;entryX=0.5;entryY=1;entryDx=0;entryDy=0;" parent="1" source="INc2y0h4v-s9_u45cCy4-27" edge="1">
          <mxGeometry relative="1" as="geometry">
            <mxPoint x="330" y="240" as="sourcePoint" />
            <mxPoint x="200" y="270" as="targetPoint" />
          </mxGeometry>
        </mxCell>
        <mxCell id="INc2y0h4v-s9_u45cCy4-34" value="" style="endArrow=none;html=1;rounded=0;fontSize=14;entryX=0.5;entryY=1;entryDx=0;entryDy=0;exitX=0.5;exitY=0;exitDx=0;exitDy=0;" parent="1" target="INc2y0h4v-s9_u45cCy4-28" edge="1">
          <mxGeometry width="50" height="50" relative="1" as="geometry">
            <mxPoint x="200" y="210" as="sourcePoint" />
            <mxPoint x="200" y="170" as="targetPoint" />
          </mxGeometry>
        </mxCell>
        <mxCell id="INc2y0h4v-s9_u45cCy4-35" value="&lt;span style=&quot;font-size: 14px;&quot;&gt;N&lt;/span&gt;" style="resizable=0;html=1;align=right;verticalAlign=bottom;" parent="1" connectable="0" vertex="1">
          <mxGeometry x="220" y="210" as="geometry" />
        </mxCell>
        <mxCell id="INc2y0h4v-s9_u45cCy4-50" value="" style="endArrow=none;html=1;rounded=0;fontSize=14;exitX=1;exitY=0.5;exitDx=0;exitDy=0;entryX=0;entryY=0.5;entryDx=0;entryDy=0;" parent="1" edge="1">
          <mxGeometry width="50" height="50" relative="1" as="geometry">
            <mxPoint x="380" y="125" as="sourcePoint" />
            <mxPoint x="430" y="125" as="targetPoint" />
          </mxGeometry>
        </mxCell>
        <mxCell id="INc2y0h4v-s9_u45cCy4-51" value="" style="endArrow=none;html=1;rounded=0;fontSize=14;exitX=1;exitY=0.5;exitDx=0;exitDy=0;" parent="1" edge="1">
          <mxGeometry width="50" height="50" relative="1" as="geometry">
            <mxPoint x="250" y="125" as="sourcePoint" />
            <mxPoint x="290" y="125.5" as="targetPoint" />
            <Array as="points">
              <mxPoint x="285" y="125.5" />
            </Array>
          </mxGeometry>
        </mxCell>
        <mxCell id="INc2y0h4v-s9_u45cCy4-52" value="&lt;span style=&quot;font-size: 14px;&quot;&gt;1&lt;/span&gt;" style="resizable=0;html=1;align=right;verticalAlign=bottom;" parent="1" connectable="0" vertex="1">
          <mxGeometry x="410" y="135" as="geometry">
            <mxPoint x="-18" y="-7" as="offset" />
          </mxGeometry>
        </mxCell>
        <mxCell id="INc2y0h4v-s9_u45cCy4-53" value="&lt;span style=&quot;font-size: 14px;&quot;&gt;N&lt;/span&gt;" style="resizable=0;html=1;align=right;verticalAlign=bottom;" parent="1" connectable="0" vertex="1">
          <mxGeometry x="290" y="125" as="geometry" />
        </mxCell>
        <mxCell id="INc2y0h4v-s9_u45cCy4-54" value="has" style="shape=rhombus;perimeter=rhombusPerimeter;whiteSpace=wrap;html=1;align=center;fontSize=14;" parent="1" vertex="1">
          <mxGeometry x="290" y="100" width="90" height="50" as="geometry" />
        </mxCell>
        <mxCell id="INc2y0h4v-s9_u45cCy4-55" value="job_title" style="rounded=1;arcSize=10;whiteSpace=wrap;html=1;align=center;fontSize=14;" parent="1" vertex="1">
          <mxGeometry x="430" y="105" width="100" height="40" as="geometry" />
        </mxCell>
        <mxCell id="INc2y0h4v-s9_u45cCy4-59" value="" style="edgeStyle=none;rounded=0;orthogonalLoop=1;jettySize=auto;html=1;fontSize=14;" parent="1" source="INc2y0h4v-s9_u45cCy4-58" target="INc2y0h4v-s9_u45cCy4-55" edge="1">
          <mxGeometry relative="1" as="geometry" />
        </mxCell>
        <mxCell id="INc2y0h4v-s9_u45cCy4-58" value="jobID" style="ellipse;whiteSpace=wrap;html=1;align=center;fontSize=14;" parent="1" vertex="1">
          <mxGeometry x="390" y="50" width="80" height="30" as="geometry" />
        </mxCell>
        <mxCell id="INc2y0h4v-s9_u45cCy4-61" value="N" style="text;html=1;align=center;verticalAlign=middle;resizable=0;points=[];autosize=1;strokeColor=none;fillColor=none;fontSize=14;" parent="1" vertex="1">
          <mxGeometry x="195" y="265" width="30" height="30" as="geometry" />
        </mxCell>
        <mxCell id="INc2y0h4v-s9_u45cCy4-67" style="edgeStyle=none;rounded=0;orthogonalLoop=1;jettySize=auto;html=1;exitX=0.5;exitY=0;exitDx=0;exitDy=0;entryX=0.25;entryY=1;entryDx=0;entryDy=0;fontSize=14;" parent="1" source="INc2y0h4v-s9_u45cCy4-63" target="INc2y0h4v-s9_u45cCy4-27" edge="1">
          <mxGeometry relative="1" as="geometry" />
        </mxCell>
        <mxCell id="INc2y0h4v-s9_u45cCy4-63" value="department_name" style="ellipse;whiteSpace=wrap;html=1;align=center;fontSize=14;" parent="1" vertex="1">
          <mxGeometry x="60" y="400" width="120" height="50" as="geometry" />
        </mxCell>
        <mxCell id="INc2y0h4v-s9_u45cCy4-68" style="edgeStyle=none;rounded=0;orthogonalLoop=1;jettySize=auto;html=1;entryX=0.5;entryY=1;entryDx=0;entryDy=0;fontSize=14;" parent="1" target="INc2y0h4v-s9_u45cCy4-27" edge="1">
          <mxGeometry relative="1" as="geometry">
            <Array as="points">
              <mxPoint x="200" y="400" />
            </Array>
            <mxPoint x="200" y="440" as="sourcePoint" />
          </mxGeometry>
        </mxCell>
        <mxCell id="INc2y0h4v-s9_u45cCy4-64" value="department_ID" style="ellipse;whiteSpace=wrap;html=1;align=center;fontStyle=4;fontSize=14;" parent="1" vertex="1">
          <mxGeometry x="150" y="440" width="100" height="40" as="geometry" />
        </mxCell>
        <mxCell id="INc2y0h4v-s9_u45cCy4-77" value="depart_manager" style="shape=associativeEntity;whiteSpace=wrap;html=1;align=center;fontSize=12;" parent="1" vertex="1">
          <mxGeometry x="310" y="230" width="140" height="60" as="geometry" />
        </mxCell>
        <mxCell id="INc2y0h4v-s9_u45cCy4-78" value="" style="endArrow=none;html=1;rounded=0;fontSize=12;entryX=0.5;entryY=1;entryDx=0;entryDy=0;exitX=1;exitY=0.5;exitDx=0;exitDy=0;" parent="1" target="INc2y0h4v-s9_u45cCy4-77" edge="1" source="INc2y0h4v-s9_u45cCy4-27">
          <mxGeometry relative="1" as="geometry">
            <mxPoint x="250" y="339.5" as="sourcePoint" />
            <mxPoint x="310" y="340" as="targetPoint" />
            <Array as="points">
              <mxPoint x="380" y="350" />
            </Array>
          </mxGeometry>
        </mxCell>
        <mxCell id="INc2y0h4v-s9_u45cCy4-79" value="" style="endArrow=none;html=1;rounded=0;fontSize=12;exitX=0.5;exitY=0;exitDx=0;exitDy=0;" parent="1" source="INc2y0h4v-s9_u45cCy4-77" edge="1">
          <mxGeometry relative="1" as="geometry">
            <mxPoint x="450" y="339.5" as="sourcePoint" />
            <mxPoint x="220" y="180" as="targetPoint" />
            <Array as="points">
              <mxPoint x="380" y="180" />
            </Array>
          </mxGeometry>
        </mxCell>
        <mxCell id="INc2y0h4v-s9_u45cCy4-83" value="N" style="text;html=1;align=center;verticalAlign=middle;resizable=0;points=[];autosize=1;strokeColor=none;fillColor=none;fontSize=14;" parent="1" vertex="1">
          <mxGeometry x="350" y="200" width="30" height="30" as="geometry" />
        </mxCell>
        <mxCell id="INc2y0h4v-s9_u45cCy4-84" value="N" style="text;html=1;align=center;verticalAlign=middle;resizable=0;points=[];autosize=1;strokeColor=none;fillColor=none;fontSize=14;" parent="1" vertex="1">
          <mxGeometry x="350" y="290" width="30" height="30" as="geometry" />
        </mxCell>
        <mxCell id="INc2y0h4v-s9_u45cCy4-85" value="&lt;span style=&quot;font-size: 14px;&quot;&gt;1&lt;/span&gt;" style="resizable=0;html=1;align=right;verticalAlign=bottom;" parent="1" connectable="0" vertex="1">
          <mxGeometry x="230" y="165" as="geometry" />
        </mxCell>
        <mxCell id="INc2y0h4v-s9_u45cCy4-86" value="&lt;span style=&quot;font-size: 14px;&quot;&gt;1&lt;/span&gt;" style="resizable=0;html=1;align=right;verticalAlign=bottom;" parent="1" connectable="0" vertex="1">
          <mxGeometry x="260" y="340" as="geometry" />
        </mxCell>
        <mxCell id="INc2y0h4v-s9_u45cCy4-96" value="" style="endArrow=none;html=1;rounded=0;fontSize=12;" parent="1" edge="1">
          <mxGeometry width="50" height="50" relative="1" as="geometry">
            <mxPoint x="220" y="180" as="sourcePoint" />
            <mxPoint x="220" y="140" as="targetPoint" />
          </mxGeometry>
        </mxCell>
        <mxCell id="INc2y0h4v-s9_u45cCy4-98" style="edgeStyle=none;rounded=0;orthogonalLoop=1;jettySize=auto;html=1;exitX=0;exitY=0.5;exitDx=0;exitDy=0;entryX=1;entryY=0.5;entryDx=0;entryDy=0;fontSize=12;" parent="1" source="INc2y0h4v-s9_u45cCy4-81" target="INc2y0h4v-s9_u45cCy4-77" edge="1">
          <mxGeometry relative="1" as="geometry" />
        </mxCell>
        <mxCell id="INc2y0h4v-s9_u45cCy4-97" style="edgeStyle=none;rounded=0;orthogonalLoop=1;jettySize=auto;html=1;exitX=0;exitY=0.5;exitDx=0;exitDy=0;fontSize=12;entryX=1;entryY=0.5;entryDx=0;entryDy=0;" parent="1" target="INc2y0h4v-s9_u45cCy4-77" edge="1">
          <mxGeometry relative="1" as="geometry">
            <mxPoint x="470" y="260" as="targetPoint" />
            <Array as="points">
              <mxPoint x="470" y="200" />
              <mxPoint x="470" y="260" />
            </Array>
            <mxPoint x="490" y="200" as="sourcePoint" />
          </mxGeometry>
        </mxCell>
        <mxCell id="INc2y0h4v-s9_u45cCy4-100" style="edgeStyle=none;rounded=0;orthogonalLoop=1;jettySize=auto;html=1;exitX=0;exitY=0.5;exitDx=0;exitDy=0;fontSize=12;entryX=1;entryY=0.5;entryDx=0;entryDy=0;" parent="1" source="INc2y0h4v-s9_u45cCy4-99" target="INc2y0h4v-s9_u45cCy4-77" edge="1">
          <mxGeometry relative="1" as="geometry">
            <mxPoint x="470" y="260" as="targetPoint" />
            <Array as="points">
              <mxPoint x="470" y="320" />
              <mxPoint x="470" y="260" />
            </Array>
          </mxGeometry>
        </mxCell>
        <mxCell id="INc2y0h4v-s9_u45cCy4-111" style="edgeStyle=none;rounded=0;orthogonalLoop=1;jettySize=auto;html=1;exitX=0;exitY=0.5;exitDx=0;exitDy=0;entryX=1;entryY=0.5;entryDx=0;entryDy=0;fontSize=12;" parent="1" source="INc2y0h4v-s9_u45cCy4-110" target="INc2y0h4v-s9_u45cCy4-77" edge="1">
          <mxGeometry relative="1" as="geometry">
            <Array as="points">
              <mxPoint x="470" y="370" />
              <mxPoint x="470" y="260" />
            </Array>
          </mxGeometry>
        </mxCell>
        <mxCell id="INc2y0h4v-s9_u45cCy4-115" value="salary" style="whiteSpace=wrap;html=1;rounded=1;arcSize=10;" parent="1" vertex="1">
          <mxGeometry x="150" y="-70" width="100" height="40" as="geometry" />
        </mxCell>
        <mxCell id="INc2y0h4v-s9_u45cCy4-117" value="has" style="shape=rhombus;perimeter=rhombusPerimeter;whiteSpace=wrap;html=1;align=center;fontSize=12;" parent="1" vertex="1">
          <mxGeometry x="160" width="80" height="50" as="geometry" />
        </mxCell>
        <mxCell id="INc2y0h4v-s9_u45cCy4-118" value="" style="endArrow=none;html=1;rounded=0;fontSize=12;exitX=0.5;exitY=0;exitDx=0;exitDy=0;entryX=0.5;entryY=1;entryDx=0;entryDy=0;" parent="1" source="INc2y0h4v-s9_u45cCy4-117" target="INc2y0h4v-s9_u45cCy4-115" edge="1">
          <mxGeometry width="50" height="50" relative="1" as="geometry">
            <mxPoint x="280" y="190" as="sourcePoint" />
            <mxPoint x="330" y="140" as="targetPoint" />
          </mxGeometry>
        </mxCell>
        <mxCell id="INc2y0h4v-s9_u45cCy4-119" value="" style="endArrow=none;html=1;rounded=0;fontSize=12;exitX=0.5;exitY=1;exitDx=0;exitDy=0;entryX=0.5;entryY=0;entryDx=0;entryDy=0;" parent="1" source="INc2y0h4v-s9_u45cCy4-117" edge="1" target="INc2y0h4v-s9_u45cCy4-28">
          <mxGeometry width="50" height="50" relative="1" as="geometry">
            <mxPoint x="210" y="40" as="sourcePoint" />
            <mxPoint x="200" y="110" as="targetPoint" />
            <Array as="points" />
          </mxGeometry>
        </mxCell>
        <mxCell id="INc2y0h4v-s9_u45cCy4-120" value="&lt;span style=&quot;font-size: 14px;&quot;&gt;N&lt;/span&gt;" style="resizable=0;html=1;align=right;verticalAlign=bottom;" parent="1" connectable="0" vertex="1">
          <mxGeometry x="195" as="geometry" />
        </mxCell>
        <mxCell id="INc2y0h4v-s9_u45cCy4-121" value="&lt;span style=&quot;font-size: 14px;&quot;&gt;1&lt;/span&gt;" style="resizable=0;html=1;align=right;verticalAlign=bottom;" parent="1" connectable="0" vertex="1">
          <mxGeometry x="195" y="90" as="geometry" />
        </mxCell>
        <mxCell id="INc2y0h4v-s9_u45cCy4-44" value="" style="endArrow=classic;html=1;rounded=0;fontSize=14;" parent="1" edge="1">
          <mxGeometry width="50" height="50" relative="1" as="geometry">
            <mxPoint x="120" y="115" as="sourcePoint" />
            <mxPoint x="150" y="115" as="targetPoint" />
          </mxGeometry>
        </mxCell>
        <mxCell id="INc2y0h4v-s9_u45cCy4-127" value="" style="edgeStyle=none;rounded=0;orthogonalLoop=1;jettySize=auto;html=1;fontSize=12;entryX=0.5;entryY=0;entryDx=0;entryDy=0;" parent="1" source="INc2y0h4v-s9_u45cCy4-125" target="INc2y0h4v-s9_u45cCy4-115" edge="1">
          <mxGeometry relative="1" as="geometry">
            <mxPoint x="165" y="-70" as="targetPoint" />
          </mxGeometry>
        </mxCell>
        <mxCell id="INc2y0h4v-s9_u45cCy4-125" value="salaryID" style="ellipse;whiteSpace=wrap;html=1;align=center;fontSize=12;" parent="1" vertex="1">
          <mxGeometry x="100" y="-130" width="70" height="40" as="geometry" />
        </mxCell>
        <mxCell id="INc2y0h4v-s9_u45cCy4-129" value="" style="edgeStyle=none;rounded=0;orthogonalLoop=1;jettySize=auto;html=1;fontSize=12;entryX=0.5;entryY=0;entryDx=0;entryDy=0;" parent="1" source="INc2y0h4v-s9_u45cCy4-128" target="INc2y0h4v-s9_u45cCy4-115" edge="1">
          <mxGeometry relative="1" as="geometry" />
        </mxCell>
        <mxCell id="INc2y0h4v-s9_u45cCy4-128" value="salary_records" style="ellipse;shape=doubleEllipse;margin=3;whiteSpace=wrap;html=1;align=center;fontSize=12;" parent="1" vertex="1">
          <mxGeometry x="220" y="-130" width="90" height="40" as="geometry" />
        </mxCell>
        <mxCell id="INc2y0h4v-s9_u45cCy4-131" style="edgeStyle=none;rounded=0;orthogonalLoop=1;jettySize=auto;html=1;exitX=0.5;exitY=1;exitDx=0;exitDy=0;entryX=0.75;entryY=0;entryDx=0;entryDy=0;fontSize=12;" parent="1" source="INc2y0h4v-s9_u45cCy4-130" target="INc2y0h4v-s9_u45cCy4-55" edge="1">
          <mxGeometry relative="1" as="geometry" />
        </mxCell>
        <mxCell id="INc2y0h4v-s9_u45cCy4-130" value="position_name" style="ellipse;whiteSpace=wrap;html=1;align=center;fontSize=14;" parent="1" vertex="1">
          <mxGeometry x="500" y="50" width="100" height="30" as="geometry" />
        </mxCell>
        <mxCell id="INc2y0h4v-s9_u45cCy4-134" style="edgeStyle=none;orthogonalLoop=1;jettySize=auto;html=1;fontSize=12;startArrow=none;startFill=0;endArrow=none;endFill=0;rounded=0;strokeWidth=1;entryX=0.75;entryY=1;entryDx=0;entryDy=0;" parent="1" source="INc2y0h4v-s9_u45cCy4-133" target="INc2y0h4v-s9_u45cCy4-27" edge="1">
          <mxGeometry relative="1" as="geometry">
            <mxPoint x="225" y="380" as="targetPoint" />
            <Array as="points">
              <mxPoint x="225" y="425" />
            </Array>
          </mxGeometry>
        </mxCell>
        <mxCell id="INc2y0h4v-s9_u45cCy4-136" style="edgeStyle=none;rounded=0;orthogonalLoop=1;jettySize=auto;html=1;exitX=1;exitY=0.5;exitDx=0;exitDy=0;entryX=1;entryY=0.5;entryDx=0;entryDy=0;strokeWidth=1;fontSize=12;startArrow=none;startFill=0;endArrow=none;endFill=0;" parent="1" source="INc2y0h4v-s9_u45cCy4-133" target="INc2y0h4v-s9_u45cCy4-55" edge="1">
          <mxGeometry relative="1" as="geometry">
            <Array as="points">
              <mxPoint x="680" y="420" />
              <mxPoint x="680" y="220" />
              <mxPoint x="680" y="125" />
            </Array>
          </mxGeometry>
        </mxCell>
        <mxCell id="INc2y0h4v-s9_u45cCy4-133" value="has" style="shape=rhombus;perimeter=rhombusPerimeter;whiteSpace=wrap;html=1;align=center;fontSize=12;" parent="1" vertex="1">
          <mxGeometry x="340" y="400" width="100" height="50" as="geometry" />
        </mxCell>
        <mxCell id="INc2y0h4v-s9_u45cCy4-135" value="&lt;span style=&quot;font-size: 14px;&quot;&gt;1&lt;/span&gt;" style="resizable=0;html=1;align=right;verticalAlign=bottom;" parent="1" connectable="0" vertex="1">
          <mxGeometry x="270" y="360" as="geometry">
            <mxPoint x="-27" y="28" as="offset" />
          </mxGeometry>
        </mxCell>
        <mxCell id="INc2y0h4v-s9_u45cCy4-137" value="N" style="text;html=1;align=center;verticalAlign=middle;resizable=0;points=[];autosize=1;strokeColor=none;fillColor=none;fontSize=14;" parent="1" vertex="1">
          <mxGeometry x="530" y="135" width="30" height="30" as="geometry" />
        </mxCell>
        <mxCell id="TkorfV8wX35E3V07301R-2" style="edgeStyle=orthogonalEdgeStyle;rounded=0;orthogonalLoop=1;jettySize=auto;html=1;entryX=0.5;entryY=0;entryDx=0;entryDy=0;" parent="1" target="INc2y0h4v-s9_u45cCy4-55" edge="1">
          <mxGeometry relative="1" as="geometry">
            <mxPoint x="480" y="30" as="sourcePoint" />
            <Array as="points">
              <mxPoint x="480" y="100" />
              <mxPoint x="480" y="100" />
            </Array>
          </mxGeometry>
        </mxCell>
        <mxCell id="TkorfV8wX35E3V07301R-1" value="department_ID" style="ellipse;whiteSpace=wrap;html=1;align=center;fontSize=14;" parent="1" vertex="1">
          <mxGeometry x="430" y="10" width="100" height="30" as="geometry" />
        </mxCell>
        <mxCell id="Gw3uom9cc3VTrDz44XLL-1" value="depart_employee" style="shape=associativeEntity;whiteSpace=wrap;html=1;align=center;" vertex="1" parent="1">
          <mxGeometry x="130" y="210" width="140" height="60" as="geometry" />
        </mxCell>
        <mxCell id="Gw3uom9cc3VTrDz44XLL-2" value="&lt;span style=&quot;font-size: 14px;&quot;&gt;1&lt;/span&gt;" style="resizable=0;html=1;align=right;verticalAlign=bottom;" connectable="0" vertex="1" parent="1">
          <mxGeometry x="195" y="170" as="geometry" />
        </mxCell>
        <mxCell id="Gw3uom9cc3VTrDz44XLL-3" value="&lt;span style=&quot;font-size: 14px;&quot;&gt;1&lt;/span&gt;" style="resizable=0;html=1;align=right;verticalAlign=bottom;" connectable="0" vertex="1" parent="1">
          <mxGeometry x="195" y="320" as="geometry">
            <mxPoint x="20" y="7" as="offset" />
          </mxGeometry>
        </mxCell>
        <mxCell id="Gw3uom9cc3VTrDz44XLL-8" value="" style="group" vertex="1" connectable="0" parent="1">
          <mxGeometry x="490" y="180" width="100" height="210" as="geometry" />
        </mxCell>
        <mxCell id="INc2y0h4v-s9_u45cCy4-81" value="dep_man_ID" style="ellipse;whiteSpace=wrap;html=1;align=center;fontStyle=4;fontSize=12;" parent="Gw3uom9cc3VTrDz44XLL-8" vertex="1">
          <mxGeometry y="60" width="100" height="40" as="geometry" />
        </mxCell>
        <mxCell id="INc2y0h4v-s9_u45cCy4-99" value="employeeID" style="ellipse;whiteSpace=wrap;html=1;align=center;fontStyle=4;" parent="Gw3uom9cc3VTrDz44XLL-8" vertex="1">
          <mxGeometry y="120" width="100" height="40" as="geometry" />
        </mxCell>
        <mxCell id="INc2y0h4v-s9_u45cCy4-110" value="department_ID" style="ellipse;whiteSpace=wrap;html=1;align=center;fontStyle=4;" parent="Gw3uom9cc3VTrDz44XLL-8" vertex="1">
          <mxGeometry y="170" width="100" height="40" as="geometry" />
        </mxCell>
        <mxCell id="TkorfV8wX35E3V07301R-3" value="dates" style="ellipse;whiteSpace=wrap;html=1;align=center;fontStyle=4;fontSize=12;" parent="Gw3uom9cc3VTrDz44XLL-8" vertex="1">
          <mxGeometry width="100" height="40" as="geometry" />
        </mxCell>
        <mxCell id="Gw3uom9cc3VTrDz44XLL-16" value="" style="group" vertex="1" connectable="0" parent="1">
          <mxGeometry x="-160" y="-39.5" width="280" height="240" as="geometry" />
        </mxCell>
        <mxCell id="INc2y0h4v-s9_u45cCy4-2" value="employeeID" style="ellipse;whiteSpace=wrap;html=1;align=center;fontStyle=4;" parent="Gw3uom9cc3VTrDz44XLL-16" vertex="1">
          <mxGeometry x="130" width="100" height="40" as="geometry" />
        </mxCell>
        <mxCell id="INc2y0h4v-s9_u45cCy4-5" value="gender" style="ellipse;whiteSpace=wrap;html=1;align=center;" parent="Gw3uom9cc3VTrDz44XLL-16" vertex="1">
          <mxGeometry x="130" y="150" width="100" height="40" as="geometry" />
        </mxCell>
        <mxCell id="INc2y0h4v-s9_u45cCy4-6" value="data_of_birth" style="ellipse;whiteSpace=wrap;html=1;align=center;" parent="Gw3uom9cc3VTrDz44XLL-16" vertex="1">
          <mxGeometry x="130" y="100" width="100" height="40" as="geometry" />
        </mxCell>
        <mxCell id="INc2y0h4v-s9_u45cCy4-7" value="name_surname" style="ellipse;whiteSpace=wrap;html=1;align=center;" parent="Gw3uom9cc3VTrDz44XLL-16" vertex="1">
          <mxGeometry x="130" y="50" width="100" height="40" as="geometry" />
        </mxCell>
        <mxCell id="INc2y0h4v-s9_u45cCy4-108" style="edgeStyle=none;rounded=0;orthogonalLoop=1;jettySize=auto;html=1;exitX=1;exitY=0.5;exitDx=0;exitDy=0;fontSize=12;entryX=0.02;entryY=0.7;entryDx=0;entryDy=0;entryPerimeter=0;" parent="Gw3uom9cc3VTrDz44XLL-16" source="INc2y0h4v-s9_u45cCy4-106" target="INc2y0h4v-s9_u45cCy4-7" edge="1">
          <mxGeometry relative="1" as="geometry">
            <mxPoint x="130" y="70" as="targetPoint" />
          </mxGeometry>
        </mxCell>
        <mxCell id="INc2y0h4v-s9_u45cCy4-106" value="surname" style="ellipse;whiteSpace=wrap;html=1;align=center;fontSize=12;" parent="Gw3uom9cc3VTrDz44XLL-16" vertex="1">
          <mxGeometry y="75" width="90" height="40" as="geometry" />
        </mxCell>
        <mxCell id="INc2y0h4v-s9_u45cCy4-109" value="" style="edgeStyle=none;rounded=0;orthogonalLoop=1;jettySize=auto;html=1;fontSize=12;entryX=0;entryY=0.5;entryDx=0;entryDy=0;exitX=1;exitY=0.5;exitDx=0;exitDy=0;" parent="Gw3uom9cc3VTrDz44XLL-16" source="INc2y0h4v-s9_u45cCy4-107" target="INc2y0h4v-s9_u45cCy4-7" edge="1">
          <mxGeometry relative="1" as="geometry">
            <mxPoint x="130" y="70" as="targetPoint" />
          </mxGeometry>
        </mxCell>
        <mxCell id="INc2y0h4v-s9_u45cCy4-107" value="name" style="ellipse;whiteSpace=wrap;html=1;align=center;fontSize=12;" parent="Gw3uom9cc3VTrDz44XLL-16" vertex="1">
          <mxGeometry y="30" width="90" height="40" as="geometry" />
        </mxCell>
        <mxCell id="INc2y0h4v-s9_u45cCy4-114" value="hire_dates" style="ellipse;whiteSpace=wrap;html=1;align=center;fontSize=12;" parent="Gw3uom9cc3VTrDz44XLL-16" vertex="1">
          <mxGeometry x="130" y="200" width="100" height="40" as="geometry" />
        </mxCell>
        <mxCell id="INc2y0h4v-s9_u45cCy4-124" value="" style="group" parent="Gw3uom9cc3VTrDz44XLL-16" vertex="1" connectable="0">
          <mxGeometry x="230" y="19.75" width="50" height="200.5" as="geometry" />
        </mxCell>
        <mxCell id="INc2y0h4v-s9_u45cCy4-36" value="" style="endArrow=none;html=1;rounded=0;fontSize=14;" parent="INc2y0h4v-s9_u45cCy4-124" edge="1">
          <mxGeometry width="50" height="50" relative="1" as="geometry">
            <mxPoint x="50" y="200.5" as="sourcePoint" />
            <mxPoint x="50" y="0.5" as="targetPoint" />
          </mxGeometry>
        </mxCell>
        <mxCell id="INc2y0h4v-s9_u45cCy4-38" value="" style="endArrow=none;html=1;rounded=0;fontSize=14;" parent="INc2y0h4v-s9_u45cCy4-124" edge="1">
          <mxGeometry width="50" height="50" relative="1" as="geometry">
            <mxPoint as="sourcePoint" />
            <mxPoint x="50" as="targetPoint" />
          </mxGeometry>
        </mxCell>
        <mxCell id="INc2y0h4v-s9_u45cCy4-39" value="" style="endArrow=none;html=1;rounded=0;fontSize=14;" parent="INc2y0h4v-s9_u45cCy4-124" edge="1">
          <mxGeometry width="50" height="50" relative="1" as="geometry">
            <mxPoint y="49.5" as="sourcePoint" />
            <mxPoint x="50" y="49.5" as="targetPoint" />
          </mxGeometry>
        </mxCell>
        <mxCell id="INc2y0h4v-s9_u45cCy4-40" value="" style="endArrow=none;html=1;rounded=0;fontSize=14;" parent="INc2y0h4v-s9_u45cCy4-124" edge="1">
          <mxGeometry width="50" height="50" relative="1" as="geometry">
            <mxPoint y="99.5" as="sourcePoint" />
            <mxPoint x="50" y="99.5" as="targetPoint" />
          </mxGeometry>
        </mxCell>
        <mxCell id="INc2y0h4v-s9_u45cCy4-41" value="" style="endArrow=none;html=1;rounded=0;fontSize=14;" parent="INc2y0h4v-s9_u45cCy4-124" edge="1">
          <mxGeometry width="50" height="50" relative="1" as="geometry">
            <mxPoint y="149.5" as="sourcePoint" />
            <mxPoint x="50" y="149.5" as="targetPoint" />
          </mxGeometry>
        </mxCell>
        <mxCell id="INc2y0h4v-s9_u45cCy4-43" value="" style="endArrow=none;html=1;rounded=0;fontSize=14;" parent="INc2y0h4v-s9_u45cCy4-124" edge="1">
          <mxGeometry width="50" height="50" relative="1" as="geometry">
            <mxPoint y="200.5" as="sourcePoint" />
            <mxPoint x="50" y="200.5" as="targetPoint" />
          </mxGeometry>
        </mxCell>
        <mxCell id="Gw3uom9cc3VTrDz44XLL-24" value="" style="group" vertex="1" connectable="0" parent="1">
          <mxGeometry x="-90" y="200.5" width="150" height="189.5" as="geometry" />
        </mxCell>
        <mxCell id="Gw3uom9cc3VTrDz44XLL-10" value="dep_employee_ID" style="ellipse;whiteSpace=wrap;html=1;align=center;fontStyle=4;fontSize=12;" vertex="1" parent="Gw3uom9cc3VTrDz44XLL-24">
          <mxGeometry y="49.5" width="100" height="40" as="geometry" />
        </mxCell>
        <mxCell id="Gw3uom9cc3VTrDz44XLL-11" value="employeeID" style="ellipse;whiteSpace=wrap;html=1;align=center;fontStyle=4;" vertex="1" parent="Gw3uom9cc3VTrDz44XLL-24">
          <mxGeometry y="99.5" width="100" height="40" as="geometry" />
        </mxCell>
        <mxCell id="Gw3uom9cc3VTrDz44XLL-12" value="department_ID" style="ellipse;whiteSpace=wrap;html=1;align=center;fontStyle=4;" vertex="1" parent="Gw3uom9cc3VTrDz44XLL-24">
          <mxGeometry y="149.5" width="100" height="40" as="geometry" />
        </mxCell>
        <mxCell id="Gw3uom9cc3VTrDz44XLL-13" value="dates" style="ellipse;whiteSpace=wrap;html=1;align=center;fontStyle=4;fontSize=12;" vertex="1" parent="Gw3uom9cc3VTrDz44XLL-24">
          <mxGeometry width="100" height="40" as="geometry" />
        </mxCell>
        <mxCell id="Gw3uom9cc3VTrDz44XLL-18" value="" style="endArrow=none;html=1;rounded=0;fontSize=14;" edge="1" parent="Gw3uom9cc3VTrDz44XLL-24">
          <mxGeometry width="50" height="50" relative="1" as="geometry">
            <mxPoint x="150" y="169.5" as="sourcePoint" />
            <mxPoint x="150" y="19.5" as="targetPoint" />
          </mxGeometry>
        </mxCell>
        <mxCell id="Gw3uom9cc3VTrDz44XLL-19" value="" style="endArrow=none;html=1;rounded=0;fontSize=14;" edge="1" parent="Gw3uom9cc3VTrDz44XLL-24">
          <mxGeometry width="50" height="50" relative="1" as="geometry">
            <mxPoint x="100" y="19.5" as="sourcePoint" />
            <mxPoint x="150" y="19.5" as="targetPoint" />
          </mxGeometry>
        </mxCell>
        <mxCell id="Gw3uom9cc3VTrDz44XLL-20" value="" style="endArrow=none;html=1;rounded=0;fontSize=14;" edge="1" parent="Gw3uom9cc3VTrDz44XLL-24">
          <mxGeometry width="50" height="50" relative="1" as="geometry">
            <mxPoint x="100" y="68.5" as="sourcePoint" />
            <mxPoint x="150" y="68.5" as="targetPoint" />
          </mxGeometry>
        </mxCell>
        <mxCell id="Gw3uom9cc3VTrDz44XLL-21" value="" style="endArrow=none;html=1;rounded=0;fontSize=14;" edge="1" parent="Gw3uom9cc3VTrDz44XLL-24">
          <mxGeometry width="50" height="50" relative="1" as="geometry">
            <mxPoint x="100" y="118.5" as="sourcePoint" />
            <mxPoint x="150" y="118.5" as="targetPoint" />
          </mxGeometry>
        </mxCell>
        <mxCell id="Gw3uom9cc3VTrDz44XLL-22" value="" style="endArrow=none;html=1;rounded=0;fontSize=14;" edge="1" parent="Gw3uom9cc3VTrDz44XLL-24">
          <mxGeometry width="50" height="50" relative="1" as="geometry">
            <mxPoint x="100" y="168.5" as="sourcePoint" />
            <mxPoint x="150" y="168.5" as="targetPoint" />
          </mxGeometry>
        </mxCell>
        <mxCell id="Gw3uom9cc3VTrDz44XLL-26" value="" style="endArrow=classic;html=1;rounded=0;fontSize=14;entryX=0;entryY=0.5;entryDx=0;entryDy=0;" edge="1" parent="1" target="Gw3uom9cc3VTrDz44XLL-1">
          <mxGeometry width="50" height="50" relative="1" as="geometry">
            <mxPoint x="60" y="240" as="sourcePoint" />
            <mxPoint x="160" y="125.5" as="targetPoint" />
          </mxGeometry>
        </mxCell>
      </root>
    </mxGraphModel>
  </diagram>
</mxfile>
